HIERARCHY
ROOT Hips
{
    OFFSET 0.000000 0.000000 0.000000
    CHANNELS 6 Xposition Yposition Zposition Zrotation Xrotation Yrotation
    JOINT Spine
    {
        OFFSET -0.000000 7.246840 0.000000
        CHANNELS 3 Zrotation Xrotation Yrotation
        JOINT Spine1
        {
            OFFSET -0.000000 20.289354 0.000000
            CHANNELS 3 Zrotation Xrotation Yrotation
            JOINT Neck
            {
                OFFSET -0.000000 20.206032 1.836912
                CHANNELS 3 Zrotation Xrotation Yrotation
                JOINT Head
                {
                    OFFSET -0.000000 12.372654 -1.767522
                    CHANNELS 3 Zrotation Xrotation Yrotation
                    End Site
                    {
                        OFFSET -0.000000 22.094025 0.000000
                    }
                }
            }
            JOINT LeftShoulder
            {
                OFFSET 3.465871 17.201674 -0.568930
                CHANNELS 3 Zrotation Xrotation Yrotation
                JOINT LeftArm
                {
                    OFFSET 14.070313 0.000000 0.000000
                    CHANNELS 3 Zrotation Xrotation Yrotation
                    JOINT LeftForeArm
                    {
                        OFFSET 26.549477 0.000000 0.000000
                        CHANNELS 3 Zrotation Xrotation Yrotation
                        JOINT LeftHand
                        {
                            OFFSET 18.880413 0.000000 0.000000
                            CHANNELS 3 Zrotation Xrotation Yrotation
                            End Site
                            {
                                OFFSET 13.256415 0.000000 0.000000
                            }
                        }
                    }
                }
            }
            JOINT RightShoulder
            {
                OFFSET -3.526370 17.201674 -0.568930
                CHANNELS 3 Zrotation Xrotation Yrotation
                JOINT RightArm
                {
                    OFFSET -14.070313 0.000000 0.000000
                    CHANNELS 3 Zrotation Xrotation Yrotation
                    JOINT RightForeArm
                    {
                        OFFSET -26.549477 0.000000 0.000000
                        CHANNELS 3 Zrotation Xrotation Yrotation
                        JOINT RightHand
                        {
                            OFFSET -18.880413 0.000000 0.000000
                            CHANNELS 3 Zrotation Xrotation Yrotation
                            End Site
                            {
                                OFFSET -13.256415 0.000000 0.000000
                            }
                        }
                    }
                }
            }
        }
    }
    JOINT LeftUpLeg
    {
        OFFSET 8.837609 0.000000 0.000000
        CHANNELS 3 Zrotation Xrotation Yrotation
        JOINT LeftLeg
        {
            OFFSET -0.000000 -41.345005 0.000000
            CHANNELS 3 Zrotation Xrotation Yrotation
            JOINT LeftFoot
            {
                OFFSET -0.000000 -35.500874 0.000000
                CHANNELS 3 Zrotation Xrotation Yrotation
                JOINT LeftToeBase
                {
                    OFFSET -0.000000 -5.744446 13.256415
                    CHANNELS 3 Zrotation Xrotation Yrotation
                    End Site
                    {
                        OFFSET -0.000000 0.000000 3.535044
                    }
                }
            }
        }
    }
    JOINT RightUpLeg
    {
        OFFSET -8.837609 0.000000 0.000000
        CHANNELS 3 Zrotation Xrotation Yrotation
        JOINT RightLeg
        {
            OFFSET -0.000000 -41.345005 0.000000
            CHANNELS 3 Zrotation Xrotation Yrotation
            JOINT RightFoot
            {
                OFFSET -0.000000 -35.500874 0.000000
                CHANNELS 3 Zrotation Xrotation Yrotation
                JOINT RightToeBase
                {
                    OFFSET -0.000000 -5.744446 13.256415
                    CHANNELS 3 Zrotation Xrotation Yrotation
                    End Site
                    {
                        OFFSET -0.000000 0.000000 3.535044
                    }
                }
            }
        }
    }
}
MOTION
Frames:    12
Frame Time:    0.010000
4.559738    82.279205    29.989523    5.610681    3.465430    -8.426097    2.345510    -1.499822    2.783019    -5.457069    -2.549302    2.630830    2.333496    23.799753    -9.785011    -6.785968    -22.289461    -12.234395    13.198164    9.106205    7.848129    -144.509842    85.783875    93.586433    8.885865    -0.265704    -97.425064    35.579006    -2.853832    -38.120068    -12.270361    -14.246386    15.371882    39.358459    -27.690216    33.076244    -5.467321    -38.182110    117.524208    -8.228394    -32.275425    24.676674    -6.083316    4.003541    3.350428    -1.149595    -9.870621    2.951908    4.565261    4.188890    -4.240065    -1.657058    -0.076397    2.320674    -17.242701    -13.906483    -5.788979    0.967970    11.500283    3.490147    12.727554    -2.349754    -3.243770    -1.170482    2.345410    2.047685    
4.575191    82.242393    29.982599    5.854423    3.543675    -8.209658    2.676499    -1.247256    2.922562    -5.746453    -2.361228    2.774938    1.776135    23.309620    -9.935641    -7.039985    -22.364029    -12.527632    12.813728    9.023720    7.771759    -141.125793    86.018318    90.760849    8.884219    -0.042363    -97.447433    35.845371    -2.781840    -38.257900    -12.515010    -14.738384    15.693039    -147.917450    31.800922    158.040329    107.550468    -28.752098    -56.898712    -26.781063    53.555340    57.715500    -6.322516    3.915697    3.253130    -1.124370    -9.935216    2.848547    4.490675    4.259447    -4.289290    -1.632524    -0.085530    2.286443    -17.470518    -14.317811    -6.012704    0.694790    12.283407    3.573669    12.981199    -2.701448    -3.231426    -1.248465    2.262719    2.185951    
4.595553    82.203064    29.966030    6.193011    3.642938    -7.995779    2.937037    -0.961386    3.043458    -6.128159    -2.369363    2.891985    1.279916    23.169069    -10.147755    -7.171945    -22.707266    -12.846953    12.570617    8.812614    7.490799    -137.859528    85.859810    88.035622    8.978320    0.268681    -97.534554    36.297100    -2.481844    -38.149750    -12.765675    -15.139860    15.937418    -147.990738    31.430576    158.325699    108.392723    -29.291603    -56.333179    -26.791218    53.621532    57.555916    -6.641840    3.791939    3.158465    -1.133441    -9.993654    2.783931    4.373200    4.318626    -4.382494    -1.602184    -0.109774    2.244282    -17.801449    -14.772608    -6.130679    0.455272    13.141953    4.213714    13.130111    -3.255093    -3.881972    -1.291219    2.151492    2.263390    
4.615927    82.154167    29.954056    6.539740    3.735150    -7.794441    3.223678    -0.742210    3.098748    -7.053231    -2.206536    2.941891    2.096447    22.718311    -10.274808    -8.163507    -22.948734    -13.280611    13.354381    8.831676    7.737723    -136.086838    86.323151    86.005943    8.824624    0.711607    -97.489555    36.692398    -2.534225    -38.563717    -12.517383    -15.349334    16.024456    -148.414490    31.262632    158.408417    108.074577    -29.251390    -56.493961    -26.874989    53.329456    57.619247    -6.957803    3.703276    3.103087    -1.174554    -10.119205    2.685425    4.358719    4.401695    -4.469095    -1.567823    -0.060085    2.195503    -18.108538    -15.239556    -6.249261    0.488682    13.775318    3.226246    12.969060    -3.182064    -3.050709    -1.294064    2.013450    2.271619    
4.644875    82.102524    29.940727    6.953208    3.866601    -7.608656    3.301358    -0.606996    3.122056    -7.460002    -2.114438    2.966742    3.029841    22.296074    -10.307925    -10.158374    -23.116980    -13.953960    13.427160    8.847142    7.751925    -133.277313    86.406540    83.425972    8.647836    0.837365    -97.689034    36.668213    -2.734506    -39.004753    -12.850378    -15.326370    16.094824    -148.611099    31.015419    158.226303    107.365631    -28.611418    -56.954926    -28.287359    52.647869    58.795498    -7.327746    3.584198    3.067563    -1.237306    -10.258935    2.619733    4.299525    4.454570    -4.536849    -1.499488    -0.038389    2.099547    -18.488092    -15.769680    -6.347061    0.197046    14.698981    3.837535    12.968962    -3.733082    -3.673040    -1.279178    1.874940    2.248718    
4.672350    82.044800    29.936838    7.355631    3.975674    -7.436011    3.363171    -0.478980    3.183112    -7.819704    -2.028305    3.030436    1.923886    22.422638    -10.381762    -8.720240    -23.457197    -13.631548    13.415383    8.925487    7.667091    -128.310486    86.480690    78.762169    8.823608    0.855668    -97.912277    36.545391    -2.319517    -38.727993    -13.435146    -15.497864    15.938620    -148.745544    30.285841    158.132919    106.360298    -27.361565    -57.465431    -29.651716    51.919853    59.769939    -7.672986    3.523316    3.046088    -1.353987    -10.438123    2.572130    4.259605    4.534142    -4.714419    -1.466845    0.047202    2.052796    -18.850632    -16.271025    -6.423874    -0.419643    15.774143    5.258976    13.158746    -4.617860    -4.964500    -1.256581    1.765061    2.211525    
4.700224    81.982124    29.940548    7.766733    4.079756    -7.259880    3.348125    -0.406660    3.160841    -8.143070    -1.951477    3.010072    4.600001    21.558699    -10.420064    -13.622359    -22.894968    -15.159679    13.446764    9.028613    7.680799    -124.534775    86.447685    75.181877    8.747119    0.954126    -98.141136    36.568039    -2.341417    -38.896400    -13.963386    -15.558474    15.921118    -149.139221    29.497738    158.033676    105.076157    -25.452549    -57.926594    -30.177435    51.505119    59.864372    -8.033967    3.494050    3.032822    -1.449225    -10.663935    2.481329    4.218649    4.612459    -4.885463    -1.474444    0.183878    2.061747    -19.228506    -16.731264    -6.496733    -0.691996    16.520164    4.935827    13.039200    -4.810887    -4.833167    -1.431967    1.699470    2.521854    
4.726820    81.926750    29.947409    8.142715    4.188525    -7.085177    3.392098    -0.356566    3.138255    -8.526157    -1.875076    2.987946    2.131856    22.312021    -10.359514    -9.605124    -23.560629    -13.907846    13.478048    9.107614    7.662203    -120.352776    86.363792    71.149956    8.673411    1.084644    -98.277405    36.573799    -2.320382    -39.016663    -14.488031    -15.769854    15.820468    -149.656906    28.454836    157.970734    103.714127    -22.921343    -58.230934    -30.420153    51.265324    59.677288    -8.362337    3.467091    3.030541    -1.542097    -10.890494    2.297583    4.187464    4.739621    -5.059865    -1.349574    -0.069041    1.890009    -19.611837    -17.133524    -6.457062    -0.830658    17.224577    5.005469    13.009598    -5.171884    -5.125136    -1.421544    1.708234    2.503274    
4.755071    81.868187    29.964188    8.452811    4.266224    -6.884660    3.436195    -0.299244    3.086372    -8.809916    -1.841054    2.935596    2.420392    22.429607    -10.463573    -10.285525    -23.635063    -14.234722    13.408002    9.277143    7.688114    -118.544174    86.441086    69.501854    8.578509    1.089486    -98.406700    36.746243    -2.525296    -39.156082    -14.968208    -15.785868    15.660898    -150.415756    27.564098    157.623291    101.925499    -19.862633    -58.623684    -29.945627    51.259438    59.155277    -8.628631    3.502877    2.952454    -1.626000    -11.143190    2.143414    4.127769    4.810310    -5.059398    -1.479262    0.346012    2.066487    -19.959270    -17.411312    -6.457764    -0.926674    17.801401    5.109971    13.011281    -5.521666    -5.447351    -1.446646    1.777723    2.545625    
4.781010    81.817497    29.987080    8.672857    4.308654    -6.658504    3.564953    -0.196194    3.029453    -9.124313    -1.854265    2.875423    2.657053    22.584021    -10.447774    -10.666549    -23.630688    -14.330403    13.427047    9.353663    7.651947    -117.516296    86.394020    68.550285    8.435304    1.171026    -98.421989    36.886971    -2.767851    -39.424915    -15.412979    -15.959764    15.553563    -151.326889    26.707897    157.502731    99.915794    -16.553806    -59.209019    -29.961624    51.198784    59.325104    -8.805915    3.589325    2.829842    -1.726607    -11.391139    2.055693    4.078190    4.890862    -5.153722    -1.263172    0.075225    1.767491    -20.229809    -17.558727    -6.549368    -1.113953    18.339821    5.810756    13.047919    -6.053993    -6.192814    -1.471553    1.806307    2.588675    
4.805824    81.782791    30.013163    8.808890    4.356708    -6.394709    3.742471    -0.093041    2.951064    -9.406543    -1.906097    2.791227    2.997650    22.736504    -10.438842    -11.124208    -23.518124    -14.442264    13.430271    9.348537    7.599124    -121.113220    86.239586    72.203438    8.605930    0.901216    -98.307175    36.893147    -2.836097    -39.361858    -15.801070    -16.168283    15.455338    -152.263763    26.215492    157.374695    97.481339    -13.392859    -60.537247    -31.671124    50.707699    61.165447    -8.895435    3.661705    2.673438    -1.812497    -11.586507    1.923450    3.980794    4.968173    -5.291586    -1.250165    0.151543    1.748495    -20.447134    -17.609203    -6.714473    -1.163963    18.580265    5.361488    13.169401    -6.110781    -5.819633    -1.463185    1.821497    2.573552    
4.823675    81.765541    30.041731    8.866488    4.409631    -6.097952    3.947900    0.057979    2.862787    -9.612044    -2.103406    2.687946    2.829758    23.307898    -10.427475    -10.750781    -23.659111    -14.310332    13.383959    9.508271    7.528707    -120.197327    86.168915    71.338181    8.484188    1.000210    -98.171539    37.059059    -3.067316    -39.615276    -16.193542    -16.243790    15.361042    -153.094543    25.823734    157.165009    94.113121    -11.233074    -61.782951    -31.974121    48.947067    61.792969    -8.915686    3.719528    2.527725    -1.864636    -11.744431    1.806970    3.840532    5.030429    -5.376392    -1.202125    0.179641    1.681028    -20.597828    -17.576817    -6.914128    -1.188442    18.732252    5.302155    13.244912    -6.224451    -5.829761    -1.494045    1.746924    2.629855    
